<?xml version="1.0" encoding="utf-8"?>
<?xml-stylesheet type="text/xsl" href="rss1.xsl"?>
<rss version="2.0" xmlns:atom="http://www.w3.org/2005/Atom" xmlns:content="http://purl.org/rss/1.0/modules/content/" xmlns:dc="http://purl.org/dc/elements/1.1/" xmlns:media="http://search.yahoo.com/mrss/">
<channel>
 <title>Getty</title>
 <link>http://www.gettyimg.com/</link>
 <atom:link href="http://www.gettyimg.com/" rel="self" type="application/rss+xml" />

 
                <item>
                <title><![CDATA[【HD Live Performances】FEED - Foster The People - Grammy Awards (2012) HDTV 1080i]]></title>
                <link><![CDATA[https://sharemania.us/threads/foster-the-people-grammy-awards-2012-hdtv-1080i.229001/]]></link>
                <description><![CDATA[<article>
<blockquote class="messageText SelectQuoteContainer ugc baseHtml">
Foster The People<br>
The 54th Grammy Awards<br>
Staples Center<br>
Los Angeles, CA<br>
Feb 12, 2012<br>
<br>
Setlist<br>
01 - Wouldn't It Be Nice<br>
(The Beach Boys cover)<br>
<br>
<b>Capper:</b> J silver<br>
<br>
(cut with TS Doctor to let only FTP Performance, for those who do not want to download the complete file that weighs 28.6 GB)<br>
<br>
Source: <a href="https://sharemania.us/threads/the-54th-annual-grammy-awards-2012-1080i-27mbps-hdtv-dd5-1-mpeg2.86773/" class="internalLink">https://sharemania.us/threads/the-5...rds-2012-1080i-27mbps-hdtv-dd5-1-mpeg2.86773/</a><br>
<br>
<img src="https://i.imgur.com/oVfuMCy.jpg" class="bbCodeImage LbImage" alt="[​IMG]" data-url="https://i.imgur.com/oVfuMCy.jpg" style=""><br>
<img src="https://i.imgur.com/ROi4Ame.jpg" class="bbCodeImage LbImage" alt="[​IMG]" data-url="https://i.imgur.com/ROi4Ame.jpg" style=""><br>
<img src="https://i.imgur.com/La1XZqG.jpg" class="bbCodeImage LbImage" alt="[​IMG]" data-url="https://i.imgur.com/La1XZqG.jpg" style=""><br>
<img src="https://i.imgur.com/Ms7oIxu.jpg" class="bbCodeImage LbImage" alt="[​IMG]" data-url="https://i.imgur.com/Ms7oIxu.jpg" style=""><br>
<img src="https://i.imgur.com/S0Y36eY.jpg" class="bbCodeImage LbImage" alt="[​IMG]" data-url="https://i.imgur.com/S0Y36eY.jpg" style=""><br>
<br>
<div class="ToggleTriggerAnchor bbCodeSpoilerContainer">
<button type="button" class="button bbCodeSpoilerButton ToggleTrigger Tooltip JsOnly" data-target="> .SpoilerTarget"><span>Spoiler</span></button>
<div class="SpoilerTarget bbCodeSpoilerText">MediaInfo<br>
General<br>
ID: 0 (0x0)<br>
Format: MPEG-TS<br>
File size: 469 MiB<br>
Duration: 2 min 19 s<br>
Overall bit rate mode: Variable<br>
Overall bit rate: 28.2 Mb/s<br>
Frame rate: 25,000 FPS<br>
<br>
Video<br>
ID: 17 (0x11)<br>
Menu ID: 1 (0x1)<br>
Format: MPEG Video<br>
Format version: Version 2<br>
Format profile: Main@High<br>
Format settings: CustomMatrix / BVOP<br>
Format settings, BVOP: Yes<br>
Format settings, Matrix : Custom<br>
Format settings, GOP: M=3, N=12<br>
Format settings, picture structure: Frame<br>
Codec ID: 2<br>
Duration: 2 min 19 s<br>
Bit rate mode: Variable<br>
Bit rate: 26.5 Mb/s<br>
Maximum bit rate: 27.2 Mb/s<br>
Width: 1 920 pixels<br>
Height: 1 080 pixels<br>
Display aspect ratio: 16:9<br>
Frame rate: 25,000 FPS<br>
Color space : YUV<br>
Chroma subsampling: 4:2:0<br>
Bit depth: 8 bits<br>
Scan type: Interlaced<br>
Scan order: Top field first<br>
Compression mode: Lossy<br>
Bits/(Pixel*Frame) : 0.510<br>
Time code of first frame: 00:54:09:04<br>
Time code source: Group of pictures header<br>
GOP, Open/Closed : Open<br>
Stream size: 439 MiB (94%)<br>
<br>
Audio<br>
ID: 18 (0x12)<br>
Menu ID: 1 (0x1)<br>
Format: MPEG Audio<br>
Format version: Version 1<br>
Format profile: Layer 2<br>
Codec ID: 3<br>
Duration: 2 min 19 s<br>
Bit rate mode: Constant<br>
Bit rate: 384 kb/s<br>
Channel(s) : 2 channels<br>
Sampling rate: 48.0 kHz<br>
Frame rate: 41,667 FPS (1152 SPF)<br>
Compression mode: Lossy<br>
Stream size: 6.37 MiB (1%)<br>
Language: English<br>
Language, more info : Clean effects</div>
</div><br>
<div class="bbCodeBlock bbCodeVfcHH HiddenContent">
<div class="attribution type">Hidden Content:</div>
<blockquote>You must reply before you can see the hidden data contained here.</blockquote>
</div>
<div class="messageTextEndMarker">&nbsp;</div>
</blockquote>
</article>]]></description>
                <author><![CDATA[Nero]]></author>
                </item>

                </channel></rss>